<svg width="29" height="33" viewBox="0 0 29 33" fill="none" xmlns="http://www.w3.org/2000/svg">
<path d="M15 19.878V23.0121C14.0616 22.6805 13.052 22.5 12 22.5C7.02944 22.5 3 26.5294 3 31.5H0C0 24.8725 5.37258 19.5 12 19.5C13.0359 19.5 14.0412 19.6313 15 19.878ZM12 18C7.0275 18 3 13.9725 3 9C3 4.0275 7.0275 0 12 0C16.9725 0 21 4.0275 21 9C21 13.9725 16.9725 18 12 18ZM12 15C15.315 15 18 12.315 18 9C18 5.685 15.315 3 12 3C8.685 3 6 5.685 6 9C6 12.315 8.685 15 12 15ZM20.6894 28.3713L25.9926 23.0681L28.1139 25.1894L20.6894 32.6139L15.3861 27.3106L17.5074 25.1894L20.6894 28.3713Z" fill="black"/>
</svg>
