<svg width="50" height="54" viewBox="0 0 50 54" fill="none" xmlns="http://www.w3.org/2000/svg">
<path d="M24.8081 0C38.5021 0 49.6162 11.9467 49.6162 26.6667C49.6162 41.3867 38.5021 53.3333 24.8081 53.3333C11.114 53.3333 0 41.3867 0 26.6667C0 11.9467 11.114 0 24.8081 0ZM24.8081 48C35.7733 48 44.6545 38.4533 44.6545 26.6667C44.6545 14.88 35.7733 5.33333 24.8081 5.33333C13.8429 5.33333 4.96162 14.88 4.96162 26.6667C4.96162 38.4533 13.8429 48 24.8081 48ZM33.579 13.4673L37.0873 17.2386L24.8081 30.4379L21.2997 26.6667L33.579 13.4673Z" fill="#C9342E"/>
</svg>
