<svg width="30" height="30" viewBox="0 0 30 30" fill="none" xmlns="http://www.w3.org/2000/svg">
<path d="M15 13.5C19.1421 13.5 22.5 16.8579 22.5 21V30H19.5V21C19.5 18.6035 17.6266 16.6445 15.2645 16.5077L15 16.5C12.6034 16.5 10.6445 18.3734 10.5076 20.7355L10.5 21V30H7.5V21C7.5 16.8579 10.8579 13.5 15 13.5ZM5.25 18C5.66827 18 6.07514 18.0489 6.46515 18.1413C6.21303 18.891 6.05809 19.683 6.01344 20.504L6 21L6.00105 21.1284C5.83136 21.0684 5.65232 21.0281 5.46669 21.0104L5.25 21C4.08045 21 3.11932 21.8923 3.0103 23.0332L3 23.25V30H0V23.25C0 20.3505 2.3505 18 5.25 18ZM24.75 18C27.6495 18 30 20.3505 30 23.25V30H27V23.25C27 22.0805 26.1077 21.1194 24.9668 21.0104L24.75 21C24.4872 21 24.2349 21.045 24.0005 21.1278L24 21C24 20.0014 23.8374 19.041 23.5373 18.1434C23.9249 18.0489 24.3316 18 24.75 18ZM5.25 9C7.32106 9 9 10.6789 9 12.75C9 14.821 7.32106 16.5 5.25 16.5C3.17894 16.5 1.5 14.821 1.5 12.75C1.5 10.6789 3.17894 9 5.25 9ZM24.75 9C26.8211 9 28.5 10.6789 28.5 12.75C28.5 14.821 26.8211 16.5 24.75 16.5C22.6789 16.5 21 14.821 21 12.75C21 10.6789 22.6789 9 24.75 9ZM5.25 12C4.83579 12 4.5 12.3358 4.5 12.75C4.5 13.1642 4.83579 13.5 5.25 13.5C5.66421 13.5 6 13.1642 6 12.75C6 12.3358 5.66421 12 5.25 12ZM24.75 12C24.3358 12 24 12.3358 24 12.75C24 13.1642 24.3358 13.5 24.75 13.5C25.1642 13.5 25.5 13.1642 25.5 12.75C25.5 12.3358 25.1642 12 24.75 12ZM15 0C18.3137 0 21 2.68629 21 6C21 9.31371 18.3137 12 15 12C11.6863 12 9 9.31371 9 6C9 2.68629 11.6863 0 15 0ZM15 3C13.3431 3 12 4.34314 12 6C12 7.65686 13.3431 9 15 9C16.6569 9 18 7.65686 18 6C18 4.34314 16.6569 3 15 3Z" fill="black"/>
</svg>
